<svg xmlns="http://www.w3.org/2000/svg" width="37.037" height="34.856" viewBox="0 0 37.037 34.856">
  <g id="Group_105" data-name="Group 105" transform="translate(-297.503 -347.07)">
    <path id="Path_56" data-name="Path 56" d="M330.09,369.4" fill="none" stroke="#030504" stroke-linecap="round" stroke-linejoin="round" stroke-width="3"/>
    <path id="Path_57" data-name="Path 57" d="M330.535,361.288" fill="none" stroke="#030504" stroke-linecap="round" stroke-linejoin="round" stroke-width="3"/>
    <path id="Path_59" data-name="Path 59" d="M328.855,372.238" fill="none" stroke="#030504" stroke-linecap="round" stroke-linejoin="round" stroke-width="3"/>
    <path id="Path_60" data-name="Path 60" d="M330.09,369.4" fill="none" stroke="#030504" stroke-linecap="round" stroke-linejoin="round" stroke-width="3"/>
    <g id="Group_106" data-name="Group 106">
      <path id="Path_58" data-name="Path 58" d="M328.855,372.238a15.929,15.929,0,1,1-13.924-23.668c6.563,0,11.563,3.157,13.814,8.586" fill="none" stroke="#030504" stroke-linecap="round" stroke-linejoin="round" stroke-width="3"/>
      <g id="Group_103" data-name="Group 103">
        <path id="Path_51" data-name="Path 51" d="M322.842,373.188v-2.053a4.1,4.1,0,0,0-4.105-4.105h-7.184a4.105,4.105,0,0,0-4.105,4.105v2.053" fill="none" stroke="#030504" stroke-linecap="round" stroke-linejoin="round" stroke-width="3"/>
        <path id="Path_52" data-name="Path 52" d="M319.25,358.82a4.1,4.1,0,1,1-4.105-4.105,4.1,4.1,0,0,1,4.105,4.105Z" fill="none" stroke="#030504" stroke-linecap="round" stroke-linejoin="round" stroke-width="3"/>
      </g>
      <g id="Group_104" data-name="Group 104">
        <path id="Path_53" data-name="Path 53" d="M329.856,361.53V367.9" fill="none" stroke="#030504" stroke-linecap="round" stroke-linejoin="round" stroke-width="3"/>
        <path id="Path_54" data-name="Path 54" d="M333.04,364.714h-6.369" fill="none" stroke="#030504" stroke-linecap="round" stroke-linejoin="round" stroke-width="3"/>
      </g>
    </g>
  </g>
</svg>
